<?xml version="1.0" encoding="utf-8"?>
<!-- Generator: Adobe Illustrator 25.2.0, SVG Export Plug-In . SVG Version: 6.00 Build 0)  -->
<svg version="1.1" id="Layer_1" xmlns="http://www.w3.org/2000/svg" xmlns:xlink="http://www.w3.org/1999/xlink" x="0px" y="0px"
	 viewBox="0 0 16 16" style="enable-background:new 0 0 16 16;" xml:space="preserve">
<style type="text/css">
	.st0{fill:#FFFFFF;}
	.st1{fill:none;}
	.st2{fill:#466A8A;}
	.st3{fill:#FFD300;}
</style>
<circle class="st0" cx="8" cy="8" r="8"/>
<g id="XMLID_1_">
	
		<rect id="XMLID_9_" x="6.42" y="6.42" transform="matrix(0.7071 -0.7071 0.7071 0.7071 -3.3137 8)" class="st1" width="3.17" height="3.17"/>
	<polygon id="XMLID_8_" class="st2" points="10.24,8 8,10.24 8.64,10.88 11.52,8 8.64,5.12 8,5.76 	"/>
	<polygon id="XMLID_6_" class="st3" points="8,5.76 7.36,5.12 4.48,8 7.36,10.88 8,10.24 5.76,8 	"/>
	
		<rect id="XMLID_5_" x="7.55" y="10.43" transform="matrix(0.7071 -0.7071 0.7071 0.7071 -5.351 8.844)" class="st2" width="0.91" height="0.91"/>
	
		<rect id="XMLID_4_" x="7.55" y="4.66" transform="matrix(0.7071 -0.7071 0.7071 0.7071 -1.2764 7.1561)" class="st2" width="0.91" height="0.91"/>
	<polygon id="XMLID_3_" class="st2" points="2.87,8 6.55,4.31 7.36,5.12 8,4.48 6.55,3.03 1.58,8 6.55,12.97 7.2,12.33 6.55,11.69 	
		"/>
	<polygon id="XMLID_2_" class="st3" points="14.42,8 9.45,3.03 8,4.48 8.64,5.12 9.45,4.31 13.13,8 9.45,11.69 8.8,12.33 
		9.45,12.97 	"/>
</g>
</svg>
