<?xml version="1.0" encoding="utf-8"?>
<!-- Generator: Adobe Illustrator 19.0.0, SVG Export Plug-In . SVG Version: 6.00 Build 0)  -->
<svg version="1.1" id="Layer_1" xmlns="http://www.w3.org/2000/svg" xmlns:xlink="http://www.w3.org/1999/xlink" x="0px" y="0px"
	 viewBox="0 0 900 900" style="enable-background:new 0 0 900 900;" xml:space="preserve">
<style type="text/css">
	.st0{display:none;fill:#231F20;}
	.st1{display:none;}
	.st2{display:inline;fill:none;}
	.st3{display:inline;fill:#466A8A;}
	.st4{display:inline;fill:#FFD300;}
	.st5{fill:#466A8A;}
	.st6{fill:#FFD300;}
	.st7{fill:none;}
</style>
<rect id="XMLID_5_" x="394.7" y="614.9" transform="matrix(-0.7071 -0.7071 0.7071 -0.7071 243.0043 1415.8314)" class="st0" width="40" height="85.3"/>
<g id="XMLID_4_" class="st1">
	
		<rect id="XMLID_10_" x="-333.2" y="400.8" transform="matrix(0.7071 -0.7071 0.7071 0.7071 -390.4344 -95.4569)" class="st2" width="45.6" height="45.6"/>
	<polygon id="XMLID_13_" class="st3" points="-278.2,423.6 -310.4,455.8 -303.7,462.5 -264.7,423.6 -303.7,384.6 -310.4,391.3 	"/>
	<polygon id="XMLID_16_" class="st4" points="-310.4,391.3 -317.2,384.6 -356.2,423.6 -317.2,462.5 -310.4,455.8 -342.7,423.6 	"/>
	
		<rect id="XMLID_17_" x="-315.2" y="379.8" transform="matrix(-0.7071 0.7071 -0.7071 -0.7071 -258.016 876.0502)" class="st3" width="9.5" height="9.5"/>
	
		<rect id="XMLID_18_" x="-315.2" y="457.8" transform="matrix(0.7071 -0.7071 0.7071 0.7071 -417.997 -84.0401)" class="st3" width="9.5" height="9.5"/>
	<polygon id="XMLID_3_" class="st3" points="-385,423.6 -331.6,370.2 -317.2,384.6 -310.4,377.8 -331.6,356.7 -398.5,423.6 
		-331.6,490.4 -324.8,483.7 -331.6,476.9 	"/>
	<polygon id="XMLID_8_" class="st4" points="-289.3,356.7 -310.4,377.8 -303.7,384.6 -289.3,370.2 -235.9,423.6 -289.3,476.9 
		-296,483.7 -289.3,490.4 -222.4,423.6 	"/>
</g>
<rect id="XMLID_9_" x="483.3" y="614.9" transform="matrix(0.7071 -0.7071 0.7071 0.7071 -317.564 548.5084)" class="st0" width="40" height="85.3"/>
<g id="XMLID_1_" class="st1">
	<path id="XMLID_12_" class="st3" d="M1381.2-192.8v51.4l-136.6,54.6l136.6,54.6v51.4l-191.6-83.4v-45.1L1381.2-192.8z"/>
	<path id="XMLID_15_" class="st4" d="M1454.3,0.6c-23-23-34.7-50.9-34.7-84.3s11.7-61.3,34.7-84.3c23-23,51.4-34.3,84.3-34.3
		c33.4,0,61.3,11.3,84.3,34.3c23,23,34.7,50.9,34.7,84.3s-11.7,61.3-34.7,84.3c-23,23-50.9,34.3-84.3,34.3
		C1505.7,34.8,1477.3,23.6,1454.3,0.6z M1538.6-12.5c19.8,0,36.5-6.8,50-20.3c13.5-13.5,20.3-30.7,20.3-50.9s-6.8-37.4-20.3-50.9
		c-13.5-13.5-30.2-20.3-50-20.3s-36.5,6.8-50,20.3c-13.5,13.5-20.3,30.7-20.3,50.9s6.8,37.4,20.3,50.9
		C1502.1-19.3,1518.8-12.5,1538.6-12.5z"/>
	<path id="XMLID_21_" class="st3" d="M1686.9-192.8l191.6,83.4v45.1l-191.6,83.4v-51.4l136.6-54.6l-136.6-54.6V-192.8z"/>
</g>
<g id="XMLID_2_">
	<path id="XMLID_105_" class="st5" d="M284.4,459.8c-8.3-8.4-12.5-18.8-12.5-31.2c0-12.4,4.2-22.8,12.5-31.1
		c8.3-8.4,18.9-12.6,31.6-12.6c15.3,0,29,7.7,36.2,20.1l-12,7c-4.5-8.3-13.6-13.6-24.2-13.6c-9,0-16.3,2.9-21.9,8.6
		c-5.5,5.7-8.3,12.9-8.3,21.7c0,8.8,2.8,16,8.3,21.7c5.7,5.7,12.9,8.6,21.9,8.6c10.6,0,19.9-5.3,24.2-13.6l12,6.9
		c-3.5,6.1-8.6,11.1-15.1,14.8c-6.4,3.6-13.5,5.4-21.2,5.4C303.3,472.3,292.7,468.1,284.4,459.8z"/>
	<path id="XMLID_107_" class="st6" d="M369.3,463.1c-6.1-6.1-9.3-13.6-9.3-22.5s3.1-16.4,9.3-22.5s13.7-9.2,22.5-9.2
		c8.9,0,16.4,3,22.5,9.2s9.3,13.6,9.3,22.5s-3.1,16.4-9.3,22.5s-13.6,9.2-22.5,9.2C383,472.3,375.4,469.3,369.3,463.1z M391.8,459.6
		c5.3,0,9.8-1.8,13.4-5.4c3.6-3.6,5.4-8.2,5.4-13.6s-1.8-10-5.4-13.6s-8.1-5.4-13.4-5.4c-5.3,0-9.8,1.8-13.4,5.4
		c-3.6,3.6-5.4,8.2-5.4,13.6s1.8,10,5.4,13.6C382,457.8,386.5,459.6,391.8,459.6z"/>
	<path id="XMLID_110_" class="st5" d="M444.5,459.8c-8.3-8.4-12.5-18.8-12.5-31.2c0-12.4,4.2-22.8,12.5-31.1
		c8.3-8.4,18.9-12.6,31.6-12.6c15.3,0,29,7.7,36.2,20.1l-12,7c-4.5-8.3-13.6-13.6-24.2-13.6c-9,0-16.3,2.9-21.9,8.6
		c-5.5,5.7-8.3,12.9-8.3,21.7c0,8.8,2.8,16,8.3,21.7c5.7,5.7,12.9,8.6,21.9,8.6c10.6,0,19.9-5.3,24.2-13.6l12,6.9
		c-3.5,6.1-8.5,11.1-15.1,14.8c-6.4,3.6-13.5,5.4-21.2,5.4C463.4,472.3,452.8,468.1,444.5,459.8z"/>
	<path id="XMLID_112_" class="st6" d="M529.4,463.1c-6.1-6.1-9.3-13.6-9.3-22.5s3.1-16.4,9.3-22.5s13.7-9.2,22.5-9.2
		c8.9,0,16.4,3,22.5,9.2s9.3,13.6,9.3,22.5s-3.1,16.4-9.3,22.5s-13.6,9.2-22.5,9.2C543.2,472.3,535.6,469.3,529.4,463.1z M552,459.6
		c5.3,0,9.8-1.8,13.4-5.4c3.6-3.6,5.4-8.2,5.4-13.6s-1.8-10-5.4-13.6s-8.1-5.4-13.4-5.4c-5.3,0-9.8,1.8-13.4,5.4
		c-3.6,3.6-5.4,8.2-5.4,13.6s1.8,10,5.4,13.6C542.2,457.8,546.7,459.6,552,459.6z"/>
	<path id="XMLID_115_" class="st5" d="M643.2,386.4h13v84.3h-13V462c-4.9,6.9-11.9,10.2-21.1,10.2c-8.3,0-15.3-3-21.2-9.2
		c-5.9-6.1-8.8-13.7-8.8-22.5c0-8.9,2.9-16.4,8.8-22.5c5.9-6.1,12.9-9.2,21.2-9.2c9.2,0,16.1,3.4,21.1,10.1V386.4z M624.2,459.9
		c5.4,0,10-1.8,13.6-5.4c3.6-3.7,5.4-8.3,5.4-13.8c0-5.5-1.8-10.1-5.4-13.7c-3.6-3.7-8.2-5.5-13.6-5.5s-10,1.8-13.6,5.5
		c-3.6,3.6-5.4,8.2-5.4,13.7c0,5.5,1.8,10.1,5.4,13.8C614.2,458.1,618.8,459.9,624.2,459.9z"/>
	<path id="XMLID_118_" class="st5" d="M681.7,446.1c1.9,9.2,9.3,14.2,19.3,14.2c6.9,0,12-2.5,15.5-7.5l10.7,6.3
		c-5.9,8.8-14.7,13.1-26.4,13.1c-9.8,0-17.7-3-23.7-8.9c-6-6-9-13.6-9-22.8c0-9,3-16.5,8.9-22.5c5.9-6.1,13.6-9.2,22.9-9.2
		c8.8,0,16,3.1,21.7,9.3c5.7,6.1,8.5,13.7,8.5,22.5c0,1.3-0.1,3.1-0.5,5.4H681.7z M716.9,435.5c-1.8-9.8-8.7-14.8-17.2-14.8
		c-9.6,0-16.4,5.7-18.2,14.8H716.9z"/>
	<path id="XMLID_121_" class="st5" d="M754.5,420.6c3.3-7.5,9.5-11.2,18.5-11.2v14.1c-4.9-0.4-9.3,0.8-13,3.6
		c-3.7,2.6-5.5,7.1-5.5,13.2v30.3h-13v-60.2h13V420.6z"/>
	<path id="XMLID_123_" class="st5" d="M803.5,434.9c9.3,2,21.3,5.9,21.1,18.8c0,5.8-2.3,10.4-6.7,13.6c-4.5,3.3-10,4.9-16.7,4.9
		c-11.9,0-20.7-5.3-24.6-14.1l11.2-6.5c2,5.8,6.5,8.7,13.4,8.7s10.2-2.3,10.2-6.7c0-3.9-5.1-6.1-11.4-7.7c-9-2.3-21.2-5.9-21-18.5
		c0-5.5,2-10,6.3-13.4c4.2-3.4,9.5-5.1,15.8-5.1c10,0,18.1,4.7,22.3,12.5l-11,6.1c-2-4.6-5.9-6.9-11.3-6.9c-4.9,0-8.8,2.2-8.8,6.4
		C792.2,431.1,797.3,433.1,803.5,434.9z"/>
</g>
<g id="XMLID_6_">
	<path id="XMLID_24_" class="st5" d="M280,503.2c-1.7-1.8-2.6-3.9-2.6-6.5s0.9-4.7,2.6-6.5c1.7-1.8,4-2.7,6.7-2.7
		c3.3,0,6.2,1.7,7.7,4.4l-1.6,0.9c-1.1-2.2-3.5-3.5-6.1-3.5c-2.2,0-4,0.7-5.4,2.2c-1.4,1.4-2.1,3.2-2.1,5.3c0,2.1,0.7,3.8,2.1,5.3
		c1.4,1.4,3.2,2.2,5.4,2.2c2.6,0,5-1.4,6.1-3.5l1.6,0.9c-1.4,2.7-4.4,4.4-7.7,4.4C284,505.8,281.8,505,280,503.2z"/>
	<path id="XMLID_26_" class="st5" d="M302.9,505.8c-1.8,0-3.4-0.6-4.7-1.9c-1.3-1.3-1.9-2.9-1.9-4.7c0-1.9,0.6-3.4,1.9-4.7
		c1.3-1.3,2.9-1.9,4.7-1.9c1.8,0,3.4,0.6,4.7,1.9c1.3,1.3,1.9,2.8,1.9,4.7c0,1.9-0.7,3.4-1.9,4.7
		C306.3,505.2,304.7,505.8,302.9,505.8z M302.9,504.2c1.4,0,2.6-0.5,3.5-1.4c1-1,1.4-2.2,1.4-3.6c0-1.4-0.5-2.6-1.4-3.5
		c-1-1-2.2-1.5-3.5-1.5c-1.4,0-2.6,0.5-3.5,1.5c-1,1-1.4,2.2-1.4,3.5c0,1.4,0.5,2.6,1.4,3.6C300.3,503.7,301.5,504.2,302.9,504.2z"
		/>
	<path id="XMLID_31_" class="st5" d="M323.2,497.8v7.8h-1.7v-7.8c0-2.3-1.2-3.6-3.4-3.6c-2.4,0-4.1,1.5-4.1,4.7v6.6h-1.7v-12.7h1.7
		v2c0.9-1.5,2.4-2.3,4.3-2.3C321.3,492.6,323.2,494.6,323.2,497.8z"/>
	<path id="XMLID_35_" class="st5" d="M337.3,497.8v7.8h-1.7v-7.8c0-2.3-1.2-3.6-3.4-3.6c-2.4,0-4.1,1.5-4.1,4.7v6.6h-1.7v-12.7h1.7
		v2c0.9-1.5,2.4-2.3,4.3-2.3C335.4,492.6,337.3,494.6,337.3,497.8z"/>
	<path id="XMLID_39_" class="st5" d="M351,494.6c1.2,1.3,1.7,2.9,1.7,4.7c0,0.2,0,0.5-0.1,0.8h-11.1c0.3,2.6,2.3,4.2,5,4.2
		c1.9,0,3.4-0.9,4.1-2.2l1.5,0.9c-1.1,1.8-3.1,2.9-5.6,2.9c-2,0-3.6-0.6-4.9-1.9c-1.2-1.2-1.9-2.8-1.9-4.8c0-1.9,0.6-3.5,1.8-4.7
		c1.2-1.3,2.8-1.9,4.8-1.9C348.3,492.6,349.8,493.2,351,494.6z M341.5,498.4h9.4c-0.2-1.3-0.7-2.4-1.5-3.1c-0.9-0.7-1.9-1.1-3-1.1
		C343.8,494.2,341.9,495.9,341.5,498.4z"/>
	<path id="XMLID_42_" class="st5" d="M356.5,503.9c-1.3-1.3-1.9-2.9-1.9-4.7c0-1.9,0.6-3.4,1.9-4.7c1.3-1.3,2.9-1.9,4.8-1.9
		c2.5,0,4.6,1.3,5.5,3.3l-1.4,0.8c-0.7-1.5-2.3-2.5-4.2-2.5c-1.4,0-2.6,0.5-3.5,1.5c-1,1-1.4,2.2-1.4,3.5c0,1.4,0.5,2.6,1.4,3.6
		c1,1,2.2,1.4,3.5,1.4c1.9,0,3.4-1,4.3-2.5l1.4,0.8c-1,2-3.2,3.3-5.7,3.3C359.4,505.8,357.8,505.2,356.5,503.9z"/>
	<path id="XMLID_44_" class="st5" d="M376,494.5h-3.6v7.7c0,2.2,1.2,2,3.6,1.9v1.5c-3.5,0.5-5.3-0.4-5.3-3.4v-7.7h-2.7v-1.6h2.7v-3
		l1.7-0.5v3.5h3.6V494.5z"/>
	<path id="XMLID_46_" class="st5" d="M387,503.2c-1.7-1.8-2.6-3.9-2.6-6.5s0.9-4.7,2.6-6.5c1.7-1.8,4-2.7,6.7-2.7
		c3.3,0,6.2,1.7,7.7,4.4l-1.6,0.9c-1.1-2.2-3.5-3.5-6.1-3.5c-2.2,0-4,0.7-5.4,2.2c-1.4,1.4-2.1,3.2-2.1,5.3c0,2.1,0.7,3.8,2.1,5.3
		c1.4,1.4,3.2,2.2,5.4,2.2c2.6,0,5-1.4,6.1-3.5l1.6,0.9c-1.4,2.7-4.4,4.4-7.7,4.4C391,505.8,388.8,505,387,503.2z"/>
	<path id="XMLID_48_" class="st5" d="M409.9,505.8c-1.8,0-3.4-0.6-4.7-1.9c-1.3-1.3-1.9-2.9-1.9-4.7c0-1.9,0.6-3.4,1.9-4.7
		c1.3-1.3,2.9-1.9,4.7-1.9c1.8,0,3.4,0.6,4.7,1.9c1.3,1.3,1.9,2.8,1.9,4.7c0,1.9-0.7,3.4-1.9,4.7
		C413.3,505.2,411.7,505.8,409.9,505.8z M409.9,504.2c1.4,0,2.6-0.5,3.5-1.4c1-1,1.4-2.2,1.4-3.6c0-1.4-0.5-2.6-1.4-3.5
		c-1-1-2.2-1.5-3.5-1.5c-1.4,0-2.6,0.5-3.5,1.5c-1,1-1.4,2.2-1.4,3.5c0,1.4,0.5,2.6,1.4,3.6C407.3,503.7,408.5,504.2,409.9,504.2z"
		/>
	<path id="XMLID_51_" class="st5" d="M430.2,487.8h1.7v17.7h-1.7v-2.5c-1.2,1.8-2.9,2.8-5.1,2.8c-1.8,0-3.3-0.6-4.6-1.9
		c-1.3-1.3-1.9-2.9-1.9-4.7c0-1.8,0.6-3.4,1.9-4.7c1.3-1.3,2.8-1.9,4.6-1.9c2.3,0,3.9,0.9,5.1,2.8V487.8z M425.2,504.2
		c1.4,0,2.6-0.5,3.5-1.4c1-1,1.4-2.2,1.4-3.6c0-1.4-0.5-2.6-1.4-3.5c-1-1-2.2-1.5-3.5-1.5c-1.4,0-2.6,0.5-3.5,1.5
		c-1,1-1.4,2.2-1.4,3.5c0,1.4,0.5,2.6,1.4,3.6C422.7,503.7,423.8,504.2,425.2,504.2z"/>
	<path id="XMLID_54_" class="st5" d="M445.8,494.6c1.2,1.3,1.7,2.9,1.7,4.7c0,0.2,0,0.5-0.1,0.8h-11.1c0.3,2.6,2.3,4.2,5,4.2
		c1.9,0,3.4-0.9,4.1-2.2l1.5,0.9c-1.1,1.8-3.1,2.9-5.6,2.9c-2,0-3.6-0.6-4.9-1.9c-1.2-1.2-1.9-2.8-1.9-4.8c0-1.9,0.6-3.5,1.8-4.7
		c1.2-1.3,2.8-1.9,4.8-1.9C443.2,492.6,444.7,493.2,445.8,494.6z M436.4,498.4h9.4c-0.2-1.3-0.7-2.4-1.5-3.1c-0.9-0.7-1.9-1.1-3-1.1
		C438.6,494.2,436.7,495.9,436.4,498.4z"/>
	<path id="XMLID_57_" class="st5" d="M451.9,495c0.8-1.5,2.1-2.3,4-2.3v1.6c-2.3,0-4,1.3-4,4.2v7h-1.7v-12.7h1.7V495z"/>
	<path id="XMLID_59_" class="st5" d="M461.6,498.3c2.1,0.5,4.8,1.1,4.8,3.8c0,1.1-0.4,1.9-1.3,2.6c-0.8,0.7-1.9,1-3.3,1
		c-2.4,0-4.2-1.2-4.9-2.9l1.4-0.8c0.5,1.3,1.8,2.1,3.5,2.1c1.6,0,2.9-0.6,2.9-2c0-1.1-1.2-1.8-2.6-2.2c-2.1-0.5-4.8-1.1-4.8-3.8
		c0-1,0.4-1.9,1.2-2.6c0.8-0.7,1.9-1,3.1-1c2.1,0,3.7,1,4.4,2.6l-1.4,0.8c-0.5-1.2-1.5-1.8-3-1.8c-1.4,0-2.7,0.7-2.7,2
		C459,497.3,460.1,498,461.6,498.3z"/>
	<path id="XMLID_61_" class="st5" d="M471.7,503.4l-1.5,5.7h-1.5l1-5.7H471.7z"/>
	<path id="XMLID_63_" class="st5" d="M483.2,503.2c-1.7-1.8-2.6-3.9-2.6-6.5s0.9-4.7,2.6-6.5c1.7-1.8,4-2.7,6.7-2.7
		c3.3,0,6.2,1.7,7.7,4.4l-1.6,0.9c-1.1-2.2-3.5-3.5-6.1-3.5c-2.2,0-4,0.7-5.4,2.2c-1.4,1.4-2.1,3.2-2.1,5.3c0,2.1,0.7,3.8,2.1,5.3
		s3.2,2.2,5.4,2.2c2.6,0,5-1.4,6.1-3.5l1.6,0.9c-1.4,2.7-4.4,4.4-7.7,4.4C487.1,505.8,484.9,505,483.2,503.2z"/>
	<path id="XMLID_65_" class="st5" d="M506,505.8c-1.8,0-3.4-0.6-4.7-1.9c-1.3-1.3-1.9-2.9-1.9-4.7c0-1.9,0.6-3.4,1.9-4.7
		c1.3-1.3,2.9-1.9,4.7-1.9c1.8,0,3.4,0.6,4.7,1.9c1.3,1.3,1.9,2.8,1.9,4.7c0,1.9-0.7,3.4-1.9,4.7C509.5,505.2,507.9,505.8,506,505.8
		z M506,504.2c1.4,0,2.6-0.5,3.5-1.4c1-1,1.4-2.2,1.4-3.6c0-1.4-0.5-2.6-1.4-3.5c-1-1-2.2-1.5-3.5-1.5c-1.4,0-2.6,0.5-3.5,1.5
		c-1,1-1.4,2.2-1.4,3.5c0,1.4,0.5,2.6,1.4,3.6C503.5,503.7,504.6,504.2,506,504.2z"/>
	<path id="XMLID_68_" class="st5" d="M533.7,497.6v7.9H532v-7.9c0-2.2-1.2-3.4-3.1-3.4c-2.1,0-3.5,1.4-3.5,4.3v7h-1.7v-7.9
		c0-2.2-1.1-3.4-3-3.4c-2,0-3.6,1.4-3.6,4.3v7h-1.7v-12.7h1.7v1.8c0.9-1.4,2.2-2.2,3.9-2.2c1.8,0,3.1,0.8,3.8,2.3
		c0.9-1.5,2.3-2.3,4.1-2.3C531.8,492.6,533.7,494.5,533.7,497.6z"/>
	<path id="XMLID_70_" class="st5" d="M555.2,497.6v7.9h-1.7v-7.9c0-2.2-1.2-3.4-3.1-3.4c-2.1,0-3.5,1.4-3.5,4.3v7h-1.7v-7.9
		c0-2.2-1.1-3.4-3-3.4c-2,0-3.6,1.4-3.6,4.3v7h-1.7v-12.7h1.7v1.8c0.9-1.4,2.2-2.2,3.9-2.2c1.8,0,3.1,0.8,3.8,2.3
		c0.9-1.5,2.3-2.3,4.1-2.3C553.3,492.6,555.2,494.5,555.2,497.6z"/>
	<path id="XMLID_72_" class="st5" d="M567.3,492.9h1.7v12.7h-1.7v-2c-0.9,1.5-2.4,2.3-4.3,2.3c-3.1,0-5-2-5-5.2v-7.8h1.7v7.8
		c0,2.3,1.2,3.6,3.4,3.6c2.4,0,4.1-1.5,4.1-4.7V492.9z"/>
	<path id="XMLID_74_" class="st5" d="M583.4,497.8v7.8h-1.7v-7.8c0-2.3-1.2-3.6-3.4-3.6c-2.4,0-4.1,1.5-4.1,4.7v6.6h-1.7v-12.7h1.7
		v2c0.9-1.5,2.4-2.3,4.3-2.3C581.5,492.6,583.4,494.6,583.4,497.8z"/>
	<path id="XMLID_76_" class="st5" d="M586.6,490.7c-0.5-0.5-0.5-1.2,0-1.7c0.5-0.5,1.2-0.5,1.7,0c0.5,0.5,0.5,1.2,0,1.7
		C587.9,491.2,587.1,491.2,586.6,490.7z M586.6,505.5v-12.7h1.7v12.7H586.6z"/>
	<path id="XMLID_79_" class="st5" d="M598.6,494.5h-3.6v7.7c0,2.2,1.2,2,3.6,1.9v1.5c-3.5,0.5-5.3-0.4-5.3-3.4v-7.7h-2.7v-1.6h2.7
		v-3l1.7-0.5v3.5h3.6V494.5z"/>
	<path id="XMLID_81_" class="st5" d="M610.7,492.9h1.8l-5.4,13.8c-1,2.5-2.9,4.1-5.1,3.9V509c1.5,0.2,2.7-0.7,3.5-2.6l0.3-0.8
		l-5.7-12.7h1.8l4.8,10.6L610.7,492.9z"/>
	<path id="XMLID_83_" class="st5" d="M627.2,489.1c-2.5-0.2-3.6,0.8-3.6,3.2v0.5h3.6v1.6h-3.6v11h-1.7v-11h-2.2v-1.6h2.2v-0.5
		c0-3.3,1.9-5.1,5.3-4.9V489.1z"/>
	<path id="XMLID_85_" class="st5" d="M634.8,505.8c-1.8,0-3.4-0.6-4.7-1.9c-1.3-1.3-1.9-2.9-1.9-4.7c0-1.9,0.6-3.4,1.9-4.7
		c1.3-1.3,2.9-1.9,4.7-1.9c1.8,0,3.4,0.6,4.7,1.9c1.3,1.3,1.9,2.8,1.9,4.7c0,1.9-0.7,3.4-1.9,4.7
		C638.3,505.2,636.7,505.8,634.8,505.8z M634.8,504.2c1.4,0,2.6-0.5,3.5-1.4c1-1,1.4-2.2,1.4-3.6c0-1.4-0.5-2.6-1.4-3.5
		c-1-1-2.2-1.5-3.5-1.5c-1.4,0-2.6,0.5-3.5,1.5c-1,1-1.4,2.2-1.4,3.5c0,1.4,0.5,2.6,1.4,3.6C632.3,503.7,633.4,504.2,634.8,504.2z"
		/>
	<path id="XMLID_88_" class="st5" d="M645.9,495c0.8-1.5,2.1-2.3,4-2.3v1.6c-2.3,0-4,1.3-4,4.2v7h-1.7v-12.7h1.7V495z"/>
	<path id="XMLID_90_" class="st5" d="M660.4,503.2c-1.7-1.8-2.6-3.9-2.6-6.5s0.9-4.7,2.6-6.5c1.7-1.8,4-2.7,6.7-2.7
		c3.3,0,6.2,1.7,7.7,4.4l-1.6,0.9c-1.1-2.2-3.5-3.5-6.1-3.5c-2.2,0-4,0.7-5.4,2.2c-1.4,1.4-2.1,3.2-2.1,5.3c0,2.1,0.7,3.8,2.1,5.3
		s3.2,2.2,5.4,2.2c2.6,0,5-1.4,6.1-3.5l1.6,0.9c-1.4,2.7-4.4,4.4-7.7,4.4C664.4,505.8,662.2,505,660.4,503.2z"/>
	<path id="XMLID_92_" class="st5" d="M683.3,505.8c-1.8,0-3.4-0.6-4.7-1.9c-1.3-1.3-1.9-2.9-1.9-4.7c0-1.9,0.6-3.4,1.9-4.7
		c1.3-1.3,2.9-1.9,4.7-1.9c1.8,0,3.4,0.6,4.7,1.9c1.3,1.3,1.9,2.8,1.9,4.7c0,1.9-0.7,3.4-1.9,4.7
		C686.7,505.2,685.1,505.8,683.3,505.8z M683.3,504.2c1.4,0,2.6-0.5,3.5-1.4c1-1,1.4-2.2,1.4-3.6c0-1.4-0.5-2.6-1.4-3.5
		c-1-1-2.2-1.5-3.5-1.5c-1.4,0-2.6,0.5-3.5,1.5c-1,1-1.4,2.2-1.4,3.5c0,1.4,0.5,2.6,1.4,3.6C680.7,503.7,681.9,504.2,683.3,504.2z"
		/>
	<path id="XMLID_95_" class="st5" d="M703.6,487.8h1.7v17.7h-1.7v-2.5c-1.2,1.8-2.9,2.8-5.1,2.8c-1.8,0-3.3-0.6-4.6-1.9
		c-1.3-1.3-1.9-2.9-1.9-4.7c0-1.8,0.6-3.4,1.9-4.7c1.3-1.3,2.8-1.9,4.6-1.9c2.3,0,3.9,0.9,5.1,2.8V487.8z M698.6,504.2
		c1.4,0,2.6-0.5,3.5-1.4c1-1,1.4-2.2,1.4-3.6c0-1.4-0.5-2.6-1.4-3.5c-1-1-2.2-1.5-3.5-1.5c-1.4,0-2.6,0.5-3.5,1.5
		c-1,1-1.4,2.2-1.4,3.5c0,1.4,0.5,2.6,1.4,3.6C696.1,503.7,697.2,504.2,698.6,504.2z"/>
	<path id="XMLID_98_" class="st5" d="M719.2,494.6c1.2,1.3,1.7,2.9,1.7,4.7c0,0.2,0,0.5-0.1,0.8h-11.1c0.3,2.6,2.3,4.2,5,4.2
		c1.9,0,3.4-0.9,4.1-2.2l1.5,0.9c-1.1,1.8-3.1,2.9-5.6,2.9c-2,0-3.6-0.6-4.9-1.9s-1.9-2.8-1.9-4.8c0-1.9,0.6-3.5,1.8-4.7
		s2.8-1.9,4.8-1.9C716.6,492.6,718.1,493.2,719.2,494.6z M709.8,498.4h9.4c-0.2-1.3-0.7-2.4-1.5-3.1c-0.9-0.7-1.9-1.1-3-1.1
		C712,494.2,710.1,495.9,709.8,498.4z"/>
	<path id="XMLID_101_" class="st5" d="M725.3,495c0.8-1.5,2.1-2.3,4-2.3v1.6c-2.3,0-4,1.3-4,4.2v7h-1.7v-12.7h1.7V495z"/>
	<path id="XMLID_103_" class="st5" d="M735,498.3c2.1,0.5,4.8,1.1,4.8,3.8c0,1.1-0.4,1.9-1.3,2.6c-0.8,0.7-1.9,1-3.3,1
		c-2.4,0-4.2-1.2-4.9-2.9l1.4-0.8c0.5,1.3,1.8,2.1,3.5,2.1c1.6,0,2.9-0.6,2.9-2c0-1.1-1.2-1.8-2.6-2.2c-2.1-0.5-4.8-1.1-4.8-3.8
		c0-1,0.4-1.9,1.2-2.6c0.8-0.7,1.9-1,3.1-1c2.1,0,3.7,1,4.4,2.6l-1.4,0.8c-0.5-1.2-1.5-1.8-3-1.8c-1.4,0-2.7,0.7-2.7,2
		C732.4,497.3,733.5,498,735,498.3z"/>
</g>
<g id="XMLID_7_">
	
		<rect id="XMLID_30_" x="127.8" y="420.5" transform="matrix(0.7071 -0.7071 0.7071 0.7071 -270.0228 237.9237)" class="st7" width="48.7" height="48.7"/>
	<polygon id="XMLID_32_" class="st5" points="186.7,444.9 152.2,479.4 162.1,489.3 206.5,444.9 162.1,400.5 152.2,410.4 	"/>
	<polygon id="XMLID_34_" class="st6" points="152.2,410.4 142.3,400.5 97.9,444.9 142.3,489.3 152.2,479.4 117.7,444.9 	"/>
	
		<rect id="XMLID_36_" x="145.2" y="482.3" transform="matrix(0.7071 -0.7071 0.7071 0.7071 -301.3974 250.9227)" class="st5" width="14" height="14"/>
	
		<rect id="XMLID_37_" x="145.2" y="393.5" transform="matrix(-0.7071 0.7071 -0.7071 -0.7071 543.0261 576.1531)" class="st5" width="14" height="14"/>
	<polygon id="XMLID_11_" class="st5" points="73.1,444.9 129.9,388.2 142.3,400.5 152.2,390.6 129.9,368.4 53.3,444.9 129.9,521.5 
		139.8,511.6 129.9,501.7 	"/>
	<polygon id="XMLID_27_" class="st6" points="251,444.9 174.5,368.4 152.2,390.6 162.1,400.5 174.5,388.2 231.2,444.9 174.5,501.7 
		164.6,511.6 174.5,521.5 	"/>
</g>
</svg>
